<svg width="200" height="200" viewBox="0 0 200 200" fill="none" xmlns="http://www.w3.org/2000/svg">
<g clip-path="url(#clip0)">
<path d="M84.4857 86.1809C79.6 86.1809 75.7429 90.4726 75.7429 95.7084C75.7429 100.944 79.6857 105.236 84.4857 105.236C89.3714 105.236 93.2286 100.944 93.2286 95.7084C93.3143 90.4726 89.3714 86.1809 84.4857 86.1809ZM115.771 86.1809C110.886 86.1809 107.029 90.4726 107.029 95.7084C107.029 100.944 110.971 105.236 115.771 105.236C120.657 105.236 124.514 100.944 124.514 95.7084C124.514 90.4726 120.657 86.1809 115.771 86.1809Z" fill="#7289DA"/>
<path d="M157.429 14.1667H42.5714C32.8857 14.1667 25 22.0634 25 31.8484V147.895C25 157.68 32.8857 165.577 42.5714 165.577H139.771L135.229 149.698L146.2 159.912L156.571 169.525L175 185.833V31.8484C175 22.0634 167.114 14.1667 157.429 14.1667ZM124.343 126.265C124.343 126.265 121.257 122.574 118.686 119.313C129.914 116.137 134.2 109.098 134.2 109.098C130.686 111.416 127.343 113.047 124.343 114.163C120.057 115.965 115.943 117.167 111.914 117.853C103.686 119.398 96.1429 118.969 89.7143 117.768C84.8286 116.823 80.6286 115.45 77.1143 114.077C75.1429 113.304 73 112.36 70.8571 111.158C70.6 110.987 70.3429 110.901 70.0857 110.729C69.9143 110.643 69.8286 110.558 69.7429 110.472C68.2 109.613 67.3429 109.013 67.3429 109.013C67.3429 109.013 71.4571 115.879 82.3429 119.141C79.7714 122.403 76.6 126.265 76.6 126.265C57.6571 125.664 50.4571 113.218 50.4571 113.218C50.4571 85.5801 62.8 63.1776 62.8 63.1776C75.1429 53.9076 86.8857 54.1651 86.8857 54.1651L87.7429 55.1951C72.3143 59.6584 65.2 66.4393 65.2 66.4393C65.2 66.4393 67.0857 65.4092 70.2571 63.9501C79.4286 59.9159 86.7143 58.8001 89.7143 58.5426C90.2286 58.4567 90.6571 58.3709 91.1714 58.3709C96.4 57.6842 102.314 57.5126 108.486 58.1993C116.629 59.1434 125.371 61.5468 134.286 66.4393C134.286 66.4393 127.514 60.0017 112.943 55.5384L114.143 54.1651C114.143 54.1651 125.886 53.9076 138.229 63.1776C138.229 63.1776 150.571 85.5801 150.571 113.218C150.571 113.218 143.286 125.664 124.343 126.265V126.265Z" fill="#7289DA"/>
</g>
<defs>
<clipPath id="clip0">
<rect width="200" height="200" fill="white"/>
</clipPath>
</defs>
</svg>
