<svg width="200" height="200" viewBox="0 0 200 200" fill="none" xmlns="http://www.w3.org/2000/svg">
<path d="M185 46.5724C178.746 49.3839 172.023 51.2832 164.969 52.1376C172.169 47.7637 177.7 40.8376 180.304 32.5841C173.564 36.635 166.1 39.5756 158.155 41.1605C151.794 34.2913 142.729 30 132.698 30C113.437 30 97.8196 45.8239 97.8196 65.3422C97.8196 68.1123 98.1282 70.81 98.7232 73.3967C69.7364 71.9229 44.0375 57.8518 26.8351 36.4688C23.8329 41.6886 22.1125 47.7594 22.1125 54.2368C22.1125 66.499 28.2699 77.3167 37.6284 83.6545C31.9113 83.4711 26.5334 81.881 21.8312 79.2341C21.8272 79.3814 21.8272 79.5295 21.8272 79.6785C21.8272 96.8022 33.8496 111.086 49.805 114.335C46.8785 115.143 43.7972 115.575 40.6165 115.575C38.3691 115.575 36.1846 115.352 34.0545 114.941C38.4932 128.981 51.3733 139.2 66.6359 139.484C54.6993 148.964 39.6611 154.614 23.3198 154.614C20.5046 154.614 17.7285 154.447 15 154.12C30.4352 164.149 48.768 170 68.4642 170C132.616 170 167.699 116.146 167.699 69.4396C167.699 67.9073 167.664 66.3835 167.597 64.8667C174.411 59.8846 180.324 53.6605 184.999 46.5724H185Z" fill="#2AA9E0"/>
</svg>
